# xmcd
# Track frame offsets:
# 150
# 23439
# 50271
# 68686
# 83569
# 102995
# 117970
# 137453
# 157619
# 179686
# 200891
# 221630
# 245192
# 259804
# 278840
# 298575
#
# Disc length: 4181 seconds
# Revision: 0
# Processed by: cddbd v1.5.2PL0 Copyright (c) Steve Scherf et al.
# Submitted via: VisiTrax 2.10.3.257 - For more info visit www.synapsa.com
#
DISCID=e5105310
DTITLE=Aretha Franklin - Jewels In The Crown - All Stars Duets With The Queen
DYEAR=2007
DGENRE=Popular
TTITLE0=with Keith Richards - Jumpin' Jack Flash
TTITLE1=with Eurythmics - Sisters Are Doin' It For Themselves
TTITLE2=with George Michael - I Know You Were Waiying (For Me)
TTITLE3=with Frank Sinatra - What Now My Love
TTITLE4=with Fantasia - Put You Up On Game
TTITLE5=with John Legend - What Y'All Came To Do
TTITLE6=with Mary J. Blige - Never Gonna Break My Faith
TTITLE7=with Elton John - Through The Storm
TTITLE8=with Whitney Houston - It Isn't, It Wasn't, It Ain't never Gonna Be
TTITLE9=with Bonnie Raitt and Gloria Estefan - (You Make Me Feel Like) A Natur
TTITLE9=al Woman
TTITLE10=with Luther Vandross - Doctor's Orders
TTITLE11=with Michael McDonald - Ever Changing Times
TTITLE12=with Maria Carey - Change Of Focus
TTITLE13=with Mary J. Blige - Don't Waste Your Time
TTITLE14=with George Benson - Love All The Hurt Away
TTITLE15=with The New York Recording Orchestra - Nessun Dorma
EXTD=
EXTT0=
EXTT1=
EXTT2=
EXTT3=
EXTT4=
EXTT5=
EXTT6=
EXTT7=
EXTT8=
EXTT9=
EXTT10=
EXTT11=
EXTT12=
EXTT13=
EXTT14=
EXTT15=
PLAYORDER=
